<svg xmlns="http://www.w3.org/2000/svg" enable-background="new 0 0 24 24" viewBox="0 0 24 24" id="tor">
  <path d="M12.528,23.163l0.083-0.087L12.528,23.163L12.528,23.163z M12.497,24h-0.399c-0.339-0.005-0.678-0.016-0.933-0.021l-0.906-0.09c-0.298-0.042-0.559-0.094-0.832-0.161c-0.86-0.216-1.678-0.583-2.387-1.072c-0.314-0.218-0.826-0.633-1.081-0.908c-0.489-0.53-0.686-0.817-1.039-1.427c-0.803-1.387-0.944-3.445-0.532-4.947c0.294-1.077,0.705-1.615,1.317-2.4c0.13-0.167,0.456-0.481,0.604-0.631c0.413-0.412,1.196-0.96,1.678-1.283c0.204-0.136,0.393-0.262,0.597-0.396c0.103-0.069,0.193-0.13,0.298-0.2C9.318,10.172,10,9.814,10.242,9.36c0.695-1.304-0.359-2.854-0.411-3.076l0.108-0.09l0.11-0.088c0.112,0.059,0.215,0.137,0.325,0.211l0.644,0.428c0.109,0.074,0.215,0.151,0.327,0.215l0.353,0.259l-1.367-0.553c0.155,0.29,0.444,0.885,0.527,1.229c0.108,0.436,0.133,1.145-0.051,1.535c-0.328,0.695-1.158,1.314-1.8,1.7c-0.738,0.443-0.924,0.592-1.535,1.09l-0.94,0.803c-0.298,0.298-0.361,0.331-0.639,0.675c-0.063,0.076-0.126,0.157-0.188,0.249c-0.103,0.144-0.245,0.362-0.332,0.543c-0.833,1.726-0.848,4.009,0.17,5.663c0.635,1.031,1.597,2.056,2.688,2.561c0.314,0.146,0.904,0.436,1.266,0.49c-0.305-0.27-0.539-0.065-1.512-1.257c-0.39-0.476-0.756-1.041-1.088-1.655c-0.332-0.618-0.579-1.235-0.747-1.997c-0.2-0.904,0.04-1.494,0.374-2.216c0.345-0.745,0.671-1.062,1.167-1.597c0.32-0.346,1.557-1.205,1.983-1.456c0.938-0.557,1.077-0.761,1.465-1.956l0.316-1.057c-0.157,0.817-0.249,1.586-0.626,2.278c-0.215,0.393-0.413,0.488-0.742,0.729c-1.028,0.75-2.026,1.245-2.831,2.321C6.943,15.76,6.68,16.254,6.5,16.771c-0.161,0.465-0.237,0.711-0.159,1.252c0.209,1.435,1.093,2.853,1.965,3.922l0.608,0.684c0.2,0.22,0.72,0.46,1.082,0.568c0.289,0.087,0.864,0.272,1.142,0.296c-0.148-0.024-0.604-0.235-0.756-0.306c-0.686-0.311-1.331-0.843-1.781-1.417c-0.568-0.723-1.066-2.096-0.801-3.301c0.244-1.114,1.108-1.947,1.878-2.397c0.242-0.142,0.462-0.249,0.668-0.405c0.646-0.484,0.931-1.193,1.187-1.985c-0.009,0.204-0.15,0.655-0.218,0.848c-0.451,1.281-1.209,1.306-2.135,2.14c-0.496,0.446-1.061,1.285-1.2,1.999c-0.209,1.065,0.525,2.328,1.102,3.096c0.64,0.853,1.236,1.211,2.272,1.485l0.404,0.072l-0.09-0.069c-0.469-0.251-0.781-0.756-0.985-1.243c-0.294-0.699-0.448-1.074-0.382-1.948c0.144-1.855,0.98-1.864,1.376-2.801c0.092-0.22,0.078-0.235,0.078-0.498c0-1.584,0-3.168,0-4.752c0-1.571-0.034-3.176,0.002-4.74c0.128-0.002,0.027-0.007,0.067,0.029v15.706l0.023-0.007c0.404-0.774,0.509-2.064,0.516-3.036c0.011-1.319-0.456-2.545-0.42-3.12c0.262,1.117,0.684,1.985,0.723,3.26c0.016,0.54-0.069,1.322-0.148,1.857c-0.092,0.623-0.343,0.993-0.64,1.339l-0.06,0.06l0.059-0.038c0.159-0.09,0.318-0.244,0.426-0.363c0.411-0.454,0.637-0.979,0.774-1.61c0.166-0.78,0.345-2.098,0.262-2.91c-0.043-0.419-0.173-0.915-0.283-1.301c-0.384-1.328-0.812-1.291-0.971-2.21c-0.074-0.433-0.056-1.068-0.043-1.521c0.056,0.434,0.083,0.928,0.162,1.36c0.081,0.443,0.305,0.702,0.491,1.04c0.904,1.66,1.097,3.123,0.763,5.03c-0.074,0.429-0.164,0.837-0.307,1.221c-0.244,0.645-0.321,0.612-0.523,0.989c0.249-0.216,0.608-0.896,0.759-1.311c0.278-0.765,0.574-2.654,0.628-3.5c0.047-0.737-0.023-1.218-0.146-1.909c-0.227-1.251-0.628-2.026-1.129-3.011c-0.289-0.569-0.46-0.733-0.574-1.493c-0.083-0.557-0.164-1.36-0.153-1.926l0.025,0.127l0.081,0.775c0.034,0.282,0.072,0.572,0.121,0.847c0.136,0.759,0.224,0.756,0.558,1.392c0.415,0.789,0.961,1.729,1.193,2.703c0.258,1.08,0.355,2.437,0.191,3.57c-0.083,0.569-0.451,2.147-0.691,2.729c-0.045,0.11-0.115,0.229-0.148,0.332c0.133-0.109,0.355-0.488,0.455-0.68c0.153-0.282,0.215-0.471,0.294-0.821c0.425-1.916,0.588-4.171,0.316-6.109c-0.482-3.457-2.01-3.621-2.12-5.671c-0.02-0.363,0.034-0.951,0.023-1.084c0.045,0.258-0.007,0.514,0.124,1.136c0.155,0.735,0.377,1.184,0.783,1.762c0.173,0.245,0.33,0.518,0.487,0.788c0.315,0.538,0.581,1.108,0.761,1.783c0.175,0.65,0.356,1.405,0.453,2.091c0.213,1.517,0.196,3.239-0.105,4.718c-0.226,1.122-0.484,1.828-1.148,2.667c-0.296,0.375-0.557,0.532-0.644,0.635c0.778-0.065,2.098-0.536,2.71-0.855c0.429-0.222,0.761-0.4,1.11-0.659l0.255-0.202l0.451-0.422l0.204-0.233c1.25-1.4,1.714-3.582,1.25-5.462c-0.59-2.388-2.167-3.527-4.113-4.754c-0.184-0.117-0.36-0.218-0.56-0.335c-0.501-0.294-0.988-0.827-1.25-1.394c-0.24-0.524-0.284-0.86-0.182-1.477l-0.581-0.301l-0.329-0.161c0.067-0.025,0.442,0.047,0.55,0.058l0.974,0.126c0,0.095-0.023,0.144-0.038,0.22c-0.155,0.728,0.152,1.521,0.639,2c0.49,0.486,0.527,0.495,1.135,0.835c0.76,0.424,1.261,0.754,1.952,1.27l0.653,0.581c0.092,0.092,0.148,0.168,0.238,0.258l0.119,0.14c0.597,0.671,1.032,1.53,1.314,2.382c0.373,1.12,0.406,2.378,0.16,3.496c-0.063,0.28-0.135,0.531-0.224,0.77c-0.09,0.242-0.175,0.462-0.287,0.686c-0.092,0.182-0.339,0.63-0.46,0.794c-0.283,0.388-0.44,0.606-0.783,0.946c-0.262,0.263-0.256,0.243-0.507,0.467c-0.628,0.563-1.855,1.119-2.642,1.312c-0.442,0.109-0.794,0.192-1.25,0.242l-0.451,0.045C12.917,23.986,12.714,23.995,12.497,24L12.497,24z M11.756,17.15l0.005,5.826c-0.356-0.172-0.691-0.762-0.877-1.202c-0.229-0.535-0.422-1.014-0.39-1.694c0.049-1.063,0.516-1.503,0.953-2.183C11.7,17.501,11.651,17.371,11.756,17.15L11.756,17.15z"></path>
  <path fill="#212121" d="M12,17.076v0.343c0.118,0.648,0.37,1.571,0.362,2.545c-0.006,0.834-0.084,1.903-0.362,2.679v0.509c0.242-0.307,0.438-0.655,0.517-1.19c0.079-0.536,0.164-1.317,0.148-1.857C12.63,18.918,12.262,18.085,12,17.076L12,17.076z M12.034,7.329c-0.013,0-0.024,0-0.033,0.002v0.01l0.315,0.154l0.581,0.301c-0.103,0.617-0.058,0.953,0.182,1.477c0.263,0.567,0.75,1.1,1.25,1.394c0.2,0.117,0.376,0.218,0.56,0.335c1.945,1.227,3.523,2.366,4.113,4.754c0.464,1.88,0,4.062-1.25,5.462l-0.204,0.233l-0.451,0.422l-0.255,0.202c-0.35,0.26-0.682,0.438-1.11,0.659c-0.613,0.319-1.932,0.79-2.71,0.855c0.087-0.103,0.348-0.26,0.644-0.635c0.664-0.839,0.922-1.545,1.148-2.667c0.301-1.479,0.319-3.201,0.105-4.718c-0.096-0.686-0.278-1.44-0.453-2.091c-0.18-0.676-0.446-1.245-0.761-1.783c-0.157-0.27-0.314-0.542-0.487-0.788c-0.406-0.578-0.628-1.028-0.783-1.762c-0.13-0.622-0.078-0.878-0.124-1.136c0.011,0.133-0.042,0.721-0.023,1.084c0.11,2.05,1.638,2.214,2.12,5.671c0.272,1.938,0.108,4.193-0.316,6.109c-0.078,0.35-0.141,0.538-0.294,0.821c-0.1,0.191-0.323,0.57-0.455,0.68c0.034-0.103,0.103-0.222,0.148-0.332c0.24-0.583,0.608-2.16,0.691-2.729c0.164-1.133,0.067-2.49-0.191-3.57c-0.233-0.973-0.778-1.914-1.193-2.703c-0.334-0.636-0.422-0.633-0.558-1.392c-0.049-0.275-0.087-0.565-0.121-0.847l-0.081-0.775l-0.025-0.127c-0.011,0.565,0.07,1.369,0.153,1.926c0.115,0.76,0.285,0.924,0.574,1.493c0.5,0.985,0.902,1.76,1.129,3.011c0.123,0.691,0.193,1.171,0.146,1.909c-0.054,0.846-0.35,2.735-0.628,3.5c-0.151,0.415-0.509,1.095-0.759,1.311c0.202-0.377,0.279-0.344,0.523-0.989c0.144-0.384,0.233-0.792,0.307-1.221c0.334-1.907,0.141-3.37-0.763-5.03c-0.187-0.338-0.411-0.597-0.491-1.04c-0.079-0.432-0.105-0.927-0.162-1.36c-0.014,0.453-0.032,1.088,0.043,1.521c0.159,0.92,0.588,0.882,0.971,2.21c0.11,0.386,0.24,0.882,0.283,1.301c0.083,0.812-0.096,2.131-0.262,2.91c-0.137,0.632-0.363,1.157-0.774,1.61c-0.08,0.088-0.187,0.195-0.302,0.281v0.759c0.032,0,0.065,0.001,0.098,0.001h0.399c0.217-0.005,0.42-0.014,0.579-0.038l0.451-0.045c0.456-0.05,0.808-0.133,1.25-0.242c0.787-0.193,2.014-0.749,2.642-1.312c0.251-0.224,0.245-0.204,0.507-0.467c0.344-0.341,0.5-0.558,0.783-0.946c0.121-0.164,0.368-0.612,0.46-0.794c0.112-0.224,0.197-0.444,0.287-0.686c0.09-0.239,0.161-0.49,0.224-0.77c0.246-1.117,0.213-2.376-0.16-3.496c-0.283-0.852-0.717-1.711-1.314-2.382l-0.119-0.14c-0.09-0.09-0.146-0.166-0.238-0.258l-0.653-0.581c-0.691-0.516-1.192-0.846-1.952-1.27c-0.608-0.341-0.646-0.35-1.135-0.835c-0.487-0.479-0.794-1.273-0.639-2c0.016-0.076,0.038-0.125,0.038-0.22l-0.974-0.126C12.443,7.383,12.158,7.329,12.034,7.329L12.034,7.329z"></path>
  <path fill="#FEFBDA" d="M11.851,22.999c0.404-0.774,0.509-2.064,0.516-3.035c0.011-1.319-0.455-2.546-0.42-3.121c0.262,1.117,0.684,1.985,0.722,3.26c0.016,0.541-0.07,1.321-0.148,1.858c-0.092,0.624-0.343,0.994-0.639,1.339l-0.002,0.022c0.159-0.09,0.319-0.245,0.426-0.363c0.411-0.453,0.637-0.978,0.774-1.611c0.166-0.778,0.345-2.098,0.262-2.91c-0.043-0.42-0.173-0.915-0.283-1.301c-0.384-1.328-0.812-1.29-0.971-2.21c-0.074-0.433-0.056-1.068-0.043-1.521c0.056,0.433,0.083,0.929,0.162,1.36c0.081,0.444,0.305,0.702,0.491,1.041c0.904,1.66,1.097,3.123,0.763,5.03c-0.074,0.428-0.164,0.837-0.307,1.22c-0.245,0.646-0.321,0.612-0.523,0.989c0.249-0.215,0.608-0.895,0.758-1.31c0.278-0.765,0.574-2.654,0.628-3.5c0.047-0.738-0.022-1.218-0.146-1.909c-0.227-1.252-0.628-2.026-1.128-3.011c-0.289-0.57-0.46-0.734-0.574-1.494c-0.083-0.556-0.164-1.36-0.153-1.925c0.025,0.052,0.02,0.056,0.025,0.128l0.081,0.774c0.034,0.283,0.072,0.572,0.121,0.848c0.137,0.758,0.224,0.756,0.559,1.391c0.415,0.79,0.96,1.73,1.193,2.703c0.258,1.079,0.354,2.436,0.191,3.569c-0.083,0.57-0.451,2.147-0.691,2.73c-0.045,0.11-0.114,0.229-0.148,0.332c0.132-0.11,0.354-0.489,0.455-0.68c0.153-0.283,0.215-0.471,0.294-0.821c0.424-1.916,0.588-4.17,0.316-6.109c-0.482-3.457-2.01-3.621-2.12-5.671c-0.02-0.363,0.034-0.951,0.022-1.084l-0.004-0.511l-0.33-0.162l-0.146-0.052c-0.034,0.624-0.002,1.333-0.002,1.965C11.837,11.275,11.815,22.928,11.851,22.999L11.851,22.999z M11.757,17.151c-0.105,0.22-0.056,0.35-0.312,0.747c-0.437,0.68-0.904,1.122-0.953,2.183c-0.031,0.68,0.162,1.158,0.39,1.694c0.188,0.44,0.52,1.03,0.877,1.202L11.757,17.151z"></path>
  <path fill="#8C8A78" d="M12.611,23.076c-0.074,0.045-0.049,0.031-0.083,0.087L12.611,23.076z"></path>
  <path d="M12.47,19.089c0.002,0.01,0.003,0.021,0.005,0.032c0.001,0.002,0.001,0.005,0.002,0.007L12.47,19.089z"></path>
  <path fill="#FFFCDB" d="M11.761,7.269l0.011-0.018L11.7,7.22l-1.366-0.553c0.155,0.29,0.444,0.885,0.527,1.229c0.108,0.436,0.132,1.145-0.052,1.535c-0.327,0.695-1.157,1.314-1.799,1.7c-0.738,0.443-0.924,0.592-1.535,1.09l-0.943,0.803c-0.298,0.298-0.361,0.331-0.639,0.675c-0.063,0.076-0.126,0.157-0.188,0.249c-0.103,0.144-0.245,0.362-0.332,0.543c-0.833,1.726-0.848,4.009,0.17,5.663c0.635,1.031,1.597,2.056,2.688,2.561c0.314,0.146,0.904,0.436,1.266,0.49c-0.305-0.27-0.539-0.065-1.512-1.257c-0.39-0.476-0.756-1.041-1.088-1.655c-0.332-0.618-0.579-1.235-0.747-1.997c-0.2-0.904,0.04-1.494,0.374-2.216c0.345-0.745,0.671-1.062,1.167-1.597c0.32-0.346,1.557-1.205,1.983-1.456c0.938-0.557,1.077-0.761,1.465-1.956l0.316-1.057c-0.157,0.817-0.249,1.586-0.626,2.278c-0.215,0.393-0.413,0.488-0.742,0.729c-1.028,0.75-2.026,1.245-2.831,2.321C6.943,15.76,6.68,16.254,6.5,16.771c-0.161,0.465-0.237,0.711-0.159,1.252c0.209,1.435,1.093,2.853,1.965,3.922l0.608,0.684c0.2,0.22,0.72,0.46,1.082,0.568c0.289,0.087,0.864,0.272,1.142,0.296c-0.148-0.024-0.604-0.235-0.756-0.306c-0.686-0.311-1.331-0.843-1.781-1.417c-0.568-0.723-1.066-2.096-0.801-3.301c0.244-1.114,1.108-1.947,1.878-2.397c0.242-0.142,0.462-0.249,0.668-0.405c0.646-0.484,0.931-1.193,1.187-1.985c-0.009,0.204-0.15,0.655-0.218,0.848c-0.451,1.281-1.209,1.306-2.135,2.14c-0.496,0.446-1.061,1.285-1.2,1.999c-0.209,1.065,0.525,2.328,1.102,3.096c0.64,0.853,1.236,1.211,2.272,1.485l0.404,0.072l-0.09-0.069c-0.469-0.251-0.781-0.756-0.985-1.243c-0.294-0.699-0.448-1.074-0.382-1.948c0.144-1.855,0.98-1.864,1.376-2.801c0.092-0.22,0.078-0.235,0.078-0.498c0-1.584,0-3.168,0-4.752C11.761,10.44,11.725,8.835,11.761,7.269L11.761,7.269z"></path>
  <path fill="#DEDBBF" d="M10.334,6.667c0.155,0.29,0.444,0.885,0.527,1.229c0.108,0.436,0.132,1.145-0.052,1.535c-0.327,0.695-1.157,1.314-1.799,1.7c-0.738,0.443-0.924,0.592-1.535,1.09l-0.943,0.803c-0.298,0.298-0.361,0.331-0.639,0.675c-0.063,0.076-0.126,0.157-0.188,0.249c-0.103,0.144-0.245,0.362-0.332,0.543c-0.833,1.726-0.848,4.009,0.17,5.663c0.635,1.031,1.597,2.056,2.688,2.561c0.314,0.146,0.904,0.436,1.266,0.49c-0.305-0.27-0.539-0.065-1.512-1.257c-0.39-0.476-0.756-1.041-1.088-1.655c-0.332-0.618-0.579-1.235-0.747-1.997c-0.2-0.904,0.04-1.494,0.374-2.216c0.345-0.745,0.671-1.062,1.167-1.597c0.32-0.346,1.557-1.205,1.983-1.456c0.938-0.557,1.077-0.761,1.465-1.956l0.316-1.057c-0.157,0.817-0.249,1.586-0.626,2.278c-0.215,0.393-0.413,0.488-0.742,0.729c-1.028,0.75-2.026,1.245-2.831,2.321C6.943,15.76,6.68,16.254,6.5,16.771c-0.161,0.465-0.237,0.711-0.159,1.252c0.209,1.435,1.093,2.853,1.965,3.922l0.608,0.684c0.2,0.22,0.72,0.46,1.082,0.568c0.289,0.087,0.864,0.272,1.142,0.296c-0.148-0.024-0.604-0.235-0.756-0.306c-0.686-0.311-1.331-0.843-1.781-1.417c-0.568-0.723-1.066-2.096-0.801-3.301c0.244-1.114,1.108-1.947,1.878-2.397c0.242-0.142,0.462-0.249,0.668-0.405c0.646-0.484,0.931-1.193,1.187-1.985c-0.009,0.204-0.15,0.655-0.218,0.848c-0.451,1.281-1.209,1.306-2.135,2.14c-0.496,0.446-1.061,1.285-1.2,1.999c-0.209,1.065,0.525,2.328,1.102,3.096c0.64,0.853,1.236,1.211,2.272,1.485l0.404,0.072l-0.09-0.069c-0.469-0.251-0.781-0.756-0.985-1.243c-0.294-0.699-0.448-1.074-0.382-1.948c0.144-1.855,0.98-1.864,1.376-2.801c0.092-0.22,0.078-0.235,0.078-0.498c0-1.584,0-3.168,0-4.752c0.007-1.571-0.029-3.176,0.007-4.742h0l0.011-0.018L11.7,7.22l-0.004-0.001L10.334,6.667L10.334,6.667z"></path>
  <path fill="#7D4597" d="M12.32,8.007c0.045,0.258-0.007,0.513,0.123,1.135c0.155,0.736,0.377,1.185,0.783,1.764c0.172,0.244,0.329,0.518,0.487,0.787c0.314,0.539,0.581,1.108,0.76,1.784c0.175,0.651,0.356,1.404,0.453,2.091c0.213,1.517,0.195,3.24-0.105,4.718c-0.227,1.121-0.484,1.828-1.148,2.667c-0.296,0.375-0.556,0.532-0.644,0.635c0.779-0.064,2.098-0.536,2.711-0.854c0.428-0.222,0.76-0.399,1.11-0.659l0.256-0.202l0.451-0.422l0.204-0.233c1.249-1.399,1.714-3.583,1.249-5.463c-0.59-2.386-2.167-3.526-4.112-4.753c-0.184-0.116-0.361-0.217-0.561-0.334c-0.5-0.294-0.987-0.829-1.249-1.396c-0.24-0.522-0.285-0.859-0.182-1.475l-0.59-0.299L12.32,8.007L12.32,8.007z"></path>
  <path fill="#6D3C83" d="M12.315,7.495l0.005,0.512c0.045,0.258-0.007,0.513,0.123,1.135c0.155,0.736,0.377,1.185,0.783,1.764c0.172,0.244,0.329,0.518,0.487,0.787c0.314,0.539,0.581,1.108,0.76,1.784c0.175,0.651,0.356,1.404,0.453,2.091c0.213,1.517,0.195,3.24-0.105,4.718c-0.227,1.121-0.484,1.828-1.148,2.667c-0.296,0.375-0.556,0.532-0.644,0.635c0.779-0.064,2.098-0.536,2.711-0.854c0.28-0.145,0.519-0.271,0.749-0.414V12.083c-0.489-0.376-1.024-0.726-1.591-1.083c-0.184-0.116-0.361-0.217-0.561-0.334c-0.5-0.294-0.987-0.829-1.249-1.396c-0.24-0.522-0.285-0.859-0.182-1.475L12.315,7.495L12.315,7.495z"></path>
  <path fill="#ABCD03" d="M12.575,4.177l-0.011,0.043L12.575,4.177L12.575,4.177z M13.59,4.078l0.006,0.007L13.59,4.078L13.59,4.078z M12.575,4.177c0.002-0.1,0.253-1.057,0.287-1.183c0.052-0.205,0.099-0.4,0.146-0.588c0.032-0.126,0.141-0.485,0.144-0.593L12.845,2.36c-0.254,0.422-0.879,1.902-1.029,2.449c-0.135,0.489-0.506,1.741-0.47,2.151l0.352,0.259l0.072,0.031l-0.011,0.017c0.128-0.001,0.027-0.007,0.067,0.03v15.706l0.023-0.007c-0.036-0.071-0.016-11.723-0.016-13.752c0-0.632-0.029-1.342,0.002-1.965l0.146,0.051c0.067-0.024,0.442,0.048,0.549,0.059c0.651-1.007,1.129-1.645,1.819-2.529l0.494-0.599l0.085-0.095l1.484-1.619l1.395-1.328l0.09-0.109L17.248,1.36c-0.394,0.157-0.693,0.292-1.056,0.496c-0.637,0.356-1.18,0.7-1.712,1.231c-0.258,0.258-0.427,0.413-0.653,0.7L13.62,4.036c0.023-0.102,0.227-0.447,0.292-0.564c0.254-0.455,0.553-0.87,0.85-1.299c0.206-0.298,0.52-0.691,0.747-0.982l0.196-0.242L16.486,0c-0.099,0.065-0.191,0.133-0.29,0.206l-1.38,1.143l-0.249,0.246c-0.209,0.166-0.77,0.808-0.971,1.056c-0.467,0.577-0.618,0.856-0.961,1.446l-0.023,0.036L12.575,4.177L12.575,4.177z"></path>
  <path fill="#95B203" d="M12.565,4.219l0.011-0.043L12.565,4.219L12.565,4.219z M14.719,1.445l-0.151,0.149c-0.209,0.166-0.77,0.808-0.971,1.056c-0.467,0.577-0.618,0.856-0.961,1.446l-0.023,0.036l-0.038,0.044c0.002-0.1,0.253-1.057,0.287-1.183c0.052-0.205,0.099-0.4,0.146-0.588c0.032-0.126,0.141-0.485,0.144-0.593L12.845,2.36c-0.254,0.422-0.879,1.902-1.029,2.449c-0.135,0.489-0.506,1.741-0.47,2.151l0.352,0.259l0.072,0.031l-0.011,0.017c0.013,0,0.023,0,0.032,0L14.719,1.445L14.719,1.445z"></path>
</svg>
