<svg width="32" height="36" viewBox="0 0 32 36" fill="none" xmlns="http://www.w3.org/2000/svg">
<g id="&#231;&#188;&#150;&#231;&#187;&#132;">
<g id="&#232;&#183;&#175;&#229;&#190;&#132; 4 + &#232;&#183;&#175;&#229;&#190;&#132; 3&#232;&#146;&#153;&#231;&#137;&#136;">
<path id="&#232;&#146;&#153;&#231;&#137;&#136;" fill-rule="evenodd" clip-rule="evenodd" d="M25.041 14.0856C28.0935 15.8026 28.0935 20.1974 25.041 21.9144L6.69311 32.2351C3.69923 33.9192 0 31.7557 0 28.3207V7.67931C0 4.2443 3.69923 2.08082 6.6931 3.76487L25.041 14.0856Z" fill="url(#paint0_linear_5732_20791)"/>
<mask id="mask0_5732_20791" style="mask-type:luminance" maskUnits="userSpaceOnUse" x="0" y="3" width="28" height="30">
<path id="&#232;&#146;&#153;&#231;&#137;&#136;_2" fill-rule="evenodd" clip-rule="evenodd" d="M25.041 14.0856C28.0935 15.8026 28.0935 20.1974 25.041 21.9144L6.69311 32.2351C3.69923 33.9192 0 31.7557 0 28.3207V7.67931C0 4.2443 3.69923 2.08082 6.6931 3.76487L25.041 14.0856Z" fill="white"/>
</mask>
<g mask="url(#mask0_5732_20791)">
<path id="&#231;&#159;&#169;&#229;&#189;&#162;" fill-rule="evenodd" clip-rule="evenodd" d="M-6.87988 26.1087L26.8293 7.38867L32.9839 17.6424L-0.725237 36.3624L-6.87988 26.1087Z" fill="url(#paint1_linear_5732_20791)"/>
<g id="&#231;&#159;&#169;&#229;&#189;&#162;_2" filter="url(#filter0_d_5732_20791)">
<path fill-rule="evenodd" clip-rule="evenodd" d="M-11.4053 18.4275L22.3039 -0.29248L28.4585 9.96126L-5.25063 28.6813L-11.4053 18.4275Z" fill="url(#paint2_linear_5732_20791)"/>
</g>
<path id="&#231;&#159;&#169;&#229;&#189;&#162;_3" fill-rule="evenodd" clip-rule="evenodd" d="M-15.3184 11.2007L18.3908 -7.51932L24.5454 2.73442L-9.16371 21.4544L-15.3184 11.2007Z" fill="url(#paint3_linear_5732_20791)"/>
</g>
</g>
<path id="&#229;&#189;&#162;&#231;&#138;&#182;&#231;&#187;&#147;&#229;&#144;&#136;" fill-rule="evenodd" clip-rule="evenodd" d="M2.05847 5.04004C1.74842 5.04004 1.49707 5.29139 1.49707 5.60144V6.99864C1.49707 7.30869 1.74842 7.56004 2.05847 7.56004H2.43274C2.7428 7.56004 2.99415 7.30869 2.99415 6.99864V5.60144C2.99415 5.29139 2.7428 5.04004 2.43274 5.04004H2.05847ZM2.05847 9.72007C1.74842 9.72007 1.49707 9.97142 1.49707 10.2815V11.6787C1.49707 11.9887 1.74842 12.2401 2.05847 12.2401H2.43274C2.7428 12.2401 2.99415 11.9887 2.99415 11.6787V10.2815C2.99415 9.97142 2.7428 9.72007 2.43274 9.72007H2.05847ZM1.49707 14.9614C1.49707 14.6513 1.74842 14.4 2.05847 14.4H2.43274C2.7428 14.4 2.99415 14.6513 2.99415 14.9614V16.3586C2.99415 16.6686 2.7428 16.92 2.43274 16.92H2.05847C1.74842 16.92 1.49707 16.6686 1.49707 16.3586V14.9614ZM2.05847 19.08C1.74842 19.08 1.49707 19.3314 1.49707 19.6414V21.0386C1.49707 21.3487 1.74842 21.6 2.05847 21.6H2.43274C2.7428 21.6 2.99415 21.3487 2.99415 21.0386V19.6414C2.99415 19.3314 2.7428 19.08 2.43274 19.08H2.05847ZM1.49707 24.3214C1.49707 24.0114 1.74842 23.76 2.05847 23.76H2.43274C2.7428 23.76 2.99415 24.0114 2.99415 24.3214V25.7186C2.99415 26.0287 2.7428 26.28 2.43274 26.28H2.05847C1.74842 26.28 1.49707 26.0287 1.49707 25.7186V24.3214ZM2.05847 28.4401C1.74842 28.4401 1.49707 28.6914 1.49707 29.0015V30.3987C1.49707 30.7087 1.74842 30.9601 2.05847 30.9601H2.43274C2.7428 30.9601 2.99415 30.7087 2.99415 30.3987V29.0015C2.99415 28.6914 2.7428 28.4401 2.43274 28.4401H2.05847Z" fill="#00351E"/>
<g id="&#231;&#188;&#150;&#231;&#187;&#132; 3">
<mask id="mask1_5732_20791" style="mask-type:luminance" maskUnits="userSpaceOnUse" x="0" y="3" width="31" height="33">
<path id="&#232;&#146;&#153;&#231;&#137;&#136;_3" fill-rule="evenodd" clip-rule="evenodd" d="M28.5789 16.0756C30.5382 17.1777 31.38 19.5558 30.4321 21.5943C28.6889 25.343 25.7771 30.8735 23.1878 32.33C20.4626 33.8629 10.7673 35.0047 4.81043 35.5808C2.21235 35.832 0 33.7765 0 31.1663L0 7.67931C0 4.2443 3.69923 2.08082 6.6931 3.76487L28.5789 16.0756Z" fill="white"/>
</mask>
<g mask="url(#mask1_5732_20791)">
<g id="&#231;&#188;&#150;&#231;&#187;&#132; 2">
<g id="&#229;&#189;&#162;&#231;&#138;&#182;&#231;&#187;&#147;&#229;&#144;&#136;&#229;&#164;&#135;&#228;&#187;&#189; 3" filter="url(#filter1_d_5732_20791)">
<path fill-rule="evenodd" clip-rule="evenodd" d="M7.7778 4.36492C6.34919 3.54331 5.70259 3.17145 4.18848 3.21654C5.25345 3.21654 8.13786 3.89359 8.02666 8.13891V17.6102H4.55357C4.32624 17.6102 4.18676 17.8593 4.30551 18.0531L12.0186 30.6427L19.7317 18.0531C19.8504 17.8593 19.7109 17.6102 19.4836 17.6102H16.0111V10.1486V9.78135C16.0111 9.30229 15.7538 8.86023 15.3369 8.62413C14.8321 8.33819 14.1584 7.95702 13.7359 7.71949C13.2067 7.42202 12.6181 7.09144 12.001 6.74492C10.8552 6.10145 9.61156 5.40303 8.46913 4.75953C8.21798 4.61806 7.98932 4.48656 7.7778 4.36492Z" fill="url(#paint4_linear_5732_20791)"/>
</g>
<g id="&#229;&#189;&#162;&#231;&#138;&#182;&#231;&#187;&#147;&#229;&#144;&#136;&#229;&#164;&#135;&#228;&#187;&#189; 2">
<mask id="path-9-outside-1_5732_20791" maskUnits="userSpaceOnUse" x="2.95898" y="1.59033" width="18" height="31" fill="black">
<rect fill="white" x="2.95898" y="1.59033" width="18" height="31"/>
<path fill-rule="evenodd" clip-rule="evenodd" d="M6.93278 3.77613C5.9286 3.08379 5.16334 2.55619 3.95898 2.59206C5.02396 2.59206 8.13705 3.89338 8.02585 8.1387V17.61H4.55259C4.32527 17.61 4.18578 17.859 4.30454 18.0528L12.0176 30.6425L19.7307 18.0528C19.8494 17.859 19.7099 17.61 19.4826 17.61H16.0103V10.1484V9.78114C16.0103 9.30208 15.7529 8.86002 15.3361 8.62392C14.8313 8.33798 14.1576 7.95681 13.7351 7.71928C13.2059 7.42181 12.6173 7.09124 12.0002 6.74472C10.8544 6.10125 9.61075 5.40282 8.46832 4.75932C7.87012 4.42238 7.37797 4.08306 6.93278 3.77613Z"/>
</mask>
<path d="M3.95898 2.59206L3.93918 1.92699L3.95898 3.25742V2.59206ZM6.93278 3.77613L6.55511 4.32392V4.32392L6.93278 3.77613ZM8.02585 8.1387L7.36071 8.12127L7.36048 8.12998V8.1387H8.02585ZM8.02585 17.61V18.2753H8.69122V17.61H8.02585ZM4.30454 18.0528L3.73718 18.4004H3.73718L4.30454 18.0528ZM12.0176 30.6425L11.4503 30.9901L12.0176 31.9161L12.585 30.9901L12.0176 30.6425ZM19.7307 18.0528L20.298 18.4004L20.298 18.4004L19.7307 18.0528ZM16.0103 17.61H15.3449V18.2753H16.0103V17.61ZM15.3361 8.62392L15.664 8.04497V8.04497L15.3361 8.62392ZM13.7351 7.71928L13.409 8.29928L13.7351 7.71928ZM12.0002 6.74472L11.6744 7.32487L12.0002 6.74472ZM8.46832 4.75932L8.79486 4.17959H8.79486L8.46832 4.75932ZM3.97879 3.25713C4.93793 3.22856 5.53474 3.62043 6.55511 4.32392L7.31046 3.22834C6.32245 2.54716 5.38874 1.88381 3.93918 1.92699L3.97879 3.25713ZM8.69099 8.15612C8.75139 5.85007 7.92948 4.28074 6.8927 3.2919C5.8883 2.33394 4.68444 1.92669 3.95898 1.92669V3.25742C4.29851 3.25742 5.18367 3.50084 5.97426 4.25487C6.73247 4.97803 7.4115 6.18201 7.36071 8.12127L8.69099 8.15612ZM8.69122 17.61V8.1387H7.36048V17.61H8.69122ZM8.02585 16.9446H4.55259V18.2753H8.02585V16.9446ZM4.55259 16.9446C3.80533 16.9446 3.3468 17.7632 3.73718 18.4004L4.87189 17.7053C5.02476 17.9548 4.84521 18.2753 4.55259 18.2753V16.9446ZM3.73718 18.4004L11.4503 30.9901L12.585 30.2949L4.87189 17.7053L3.73718 18.4004ZM12.585 30.9901L20.298 18.4004L19.1633 17.7053L11.4503 30.2949L12.585 30.9901ZM20.298 18.4004C20.6884 17.7632 20.2299 16.9446 19.4826 16.9446V18.2753C19.19 18.2753 19.0105 17.9548 19.1633 17.7053L20.298 18.4004ZM19.4826 16.9446H16.0103V18.2753H19.4826V16.9446ZM15.3449 10.1484V17.61H16.6756V10.1484H15.3449ZM15.3449 9.78114V10.1484H16.6756V9.78114H15.3449ZM15.0082 9.20287C15.2162 9.32069 15.3449 9.54143 15.3449 9.78114H16.6756C16.6756 9.06273 16.2897 8.39935 15.664 8.04497L15.0082 9.20287ZM13.409 8.29928C13.8305 8.53621 14.5033 8.91687 15.0082 9.20287L15.664 8.04497C15.1593 7.75909 14.4847 7.37741 14.0611 7.13928L13.409 8.29928ZM11.6744 7.32487C12.2915 7.6714 12.88 8.0019 13.409 8.29928L14.0611 7.13928C13.5318 6.84172 12.943 6.51107 12.326 6.16458L11.6744 7.32487ZM8.14177 5.33905C9.28464 5.98279 10.5287 6.68144 11.6744 7.32487L12.326 6.16458C11.1802 5.52107 9.93685 4.82285 8.79486 4.17959L8.14177 5.33905ZM6.55511 4.32392C6.99938 4.63022 7.51416 4.98553 8.14177 5.33905L8.79486 4.17959C8.22609 3.85922 7.75657 3.53591 7.31046 3.22834L6.55511 4.32392Z" fill="#CCFFF0" mask="url(#path-9-outside-1_5732_20791)"/>
</g>
</g>
</g>
</g>
</g>
<defs>
<filter id="filter0_d_5732_20791" x="-14.6053" y="-3.98479" width="46.2643" height="35.3736" filterUnits="userSpaceOnUse" color-interpolation-filters="sRGB">
<feFlood flood-opacity="0" result="BackgroundImageFix"/>
<feColorMatrix in="SourceAlpha" type="matrix" values="0 0 0 0 0 0 0 0 0 0 0 0 0 0 0 0 0 0 127 0" result="hardAlpha"/>
<feOffset dy="-0.492308"/>
<feGaussianBlur stdDeviation="1.6"/>
<feColorMatrix type="matrix" values="0 0 0 0 0 0 0 0 0 0.0568691 0 0 0 0 0.270805 0 0 0 0.1 0"/>
<feBlend mode="normal" in2="BackgroundImageFix" result="effect1_dropShadow_5732_20791"/>
<feBlend mode="normal" in="SourceGraphic" in2="effect1_dropShadow_5732_20791" result="shape"/>
</filter>
<filter id="filter1_d_5732_20791" x="0.496168" y="-0.479418" width="22.9715" height="34.8143" filterUnits="userSpaceOnUse" color-interpolation-filters="sRGB">
<feFlood flood-opacity="0" result="BackgroundImageFix"/>
<feColorMatrix in="SourceAlpha" type="matrix" values="0 0 0 0 0 0 0 0 0 0 0 0 0 0 0 0 0 0 127 0" result="hardAlpha"/>
<feOffset/>
<feGaussianBlur stdDeviation="1.84615"/>
<feColorMatrix type="matrix" values="0 0 0 0 0 0 0 0 0 0.117216 0 0 0 0 0.0665166 0 0 0 0.2 0"/>
<feBlend mode="normal" in2="BackgroundImageFix" result="effect1_dropShadow_5732_20791"/>
<feBlend mode="normal" in="SourceGraphic" in2="effect1_dropShadow_5732_20791" result="shape"/>
</filter>
<linearGradient id="paint0_linear_5732_20791" x1="54.9622" y1="23.858" x2="15.6753" y2="-13.0111" gradientUnits="userSpaceOnUse">
<stop stop-color="#00E069"/>
<stop offset="0.500067" stop-color="#00E069"/>
<stop offset="1" stop-color="#336FFF"/>
</linearGradient>
<linearGradient id="paint1_linear_5732_20791" x1="34.4023" y1="27.6457" x2="31.2958" y2="5.56571" gradientUnits="userSpaceOnUse">
<stop stop-color="#32CCFE"/>
<stop offset="1" stop-color="#0F23C8"/>
<stop offset="1" stop-color="#0C359E"/>
</linearGradient>
<linearGradient id="paint2_linear_5732_20791" x1="17.2343" y1="29.4902" x2="26.062" y2="6.29225" gradientUnits="userSpaceOnUse">
<stop stop-color="#00FFFD"/>
<stop offset="1" stop-color="#3752FF"/>
</linearGradient>
<linearGradient id="paint3_linear_5732_20791" x1="18.1712" y1="7.32303" x2="13.7759" y2="-1.71349" gradientUnits="userSpaceOnUse">
<stop stop-color="#00FFA1"/>
<stop offset="1" stop-color="#0AB0FF"/>
</linearGradient>
<linearGradient id="paint4_linear_5732_20791" x1="7.02864" y1="6.98342" x2="7.02864" y2="28.0486" gradientUnits="userSpaceOnUse">
<stop stop-color="#00C4C4"/>
<stop offset="1" stop-color="#89FF5A"/>
</linearGradient>
</defs>
</svg>
